<?xml version="1.0" encoding="UTF-8"?>
<svg width="192px" height="480px" viewBox="0 0 192 480" version="1.1" xmlns="http://www.w3.org/2000/svg" xmlns:xlink="http://www.w3.org/1999/xlink">
    <!-- Generator: Sketch 57.1 (83088) - https://sketch.com -->
    <title>Bigben</title>
    <desc>Created with Sketch.</desc>
    <g id="Page-1" stroke="none" stroke-width="1" fill="none" fill-rule="evenodd">
        <g id="Bigben" transform="translate(0.000000, 0.047684)">
            <g id="Group" stroke-width="1" fill-rule="evenodd" transform="translate(8.000000, 143.952316)" fill="#FFD879">
                <polygon id="Path" fill-rule="nonzero" points="0 32 176 32 176 160 0 160"></polygon>
                <polygon id="Path" fill-rule="nonzero" points="24 192 152 192 152 328 24 328"></polygon>
                <polygon id="Path" fill-rule="nonzero" points="32 0 144 0 144 32 32 32"></polygon>
            </g>
            <polygon id="Path" fill="#9ED8EC" fill-rule="nonzero" points="128 71.9523158 64 71.9523158 96 7.9523158"></polygon>
            <polygon id="Path" fill="#FFD879" fill-rule="nonzero" points="64 71.9523158 128 71.9523158 128 103.952316 64 103.952316"></polygon>
            <polygon id="Path" fill="#9ED8EC" fill-rule="nonzero" points="128 103.952316 64 103.952316 40 143.952316 152 143.952316"></polygon>
            <polygon id="Path" fill="#6BBEDA" fill-rule="nonzero" points="8 303.952316 184 303.952316 184 335.952316 8 335.952316"></polygon>
            <path d="M128,359.952316 L160,359.952316 L160,471.952316 L64,471.952316 L64,423.952316 C64,388.606092 92.653776,359.952316 128,359.952316 Z" id="Path" fill="#FFE5A7" fill-rule="nonzero"></path>
            <path d="M40,175.952316 L184,175.952316 L184,271.952316 L104,271.952316 C68.653776,271.952316 40,243.29854 40,207.952316 L40,175.952316 Z" id="Path" fill="#FFE5A7" fill-rule="nonzero"></path>
            <circle id="Oval" fill="#9ED8EC" fill-rule="nonzero" cx="96" cy="239.952316" r="48"></circle>
            <circle id="Oval" fill="#6BBEDA" fill-rule="nonzero" cx="96" cy="239.952316" r="32"></circle>
            <path d="M56,143.952316 L152,143.952316 L152,159.952316 L72,159.952316 C63.163444,159.952316 56,152.788872 56,143.952316 Z" id="Path" fill="#FFE5A7" fill-rule="nonzero"></path>
            <path d="M80,71.9523158 L128,71.9523158 L128,87.9523158 L96,87.9523158 C87.163444,87.9523158 80,80.7888718 80,71.9523158 Z" id="Path" fill="#FFE5A7" fill-rule="nonzero"></path>
            <path d="M97.28,127.952316 C91.4230576,127.943762 85.926496,125.123168 82.5042533,120.370053 C79.0820105,115.616939 78.150431,109.509558 80,103.952316 L64,103.952316 L40,143.952316 L152,143.952316 L142.4,127.952316 L97.28,127.952316 Z" id="Path" fill="#6BBEDA" fill-rule="nonzero"></path>
            <polygon id="Path" fill="#6BBEDA" fill-rule="nonzero" points="104 71.9523158 64 71.9523158 96 7.9523158"></polygon>
            <path d="M40,239.952316 C40,270.880262 65.072054,295.952316 96,295.952316 C126.927946,295.952316 152,270.880262 152,239.952316 C152,209.02437 126.927946,183.952316 96,183.952316 C65.072054,183.952316 40,209.02437 40,239.952316 Z M96,199.952316 C118.09139,199.952316 136,217.860926 136,239.952316 C136,262.043706 118.09139,279.952316 96,279.952316 C73.90861,279.952316 56,262.043706 56,239.952316 C56,217.860926 73.90861,199.952316 96,199.952316 Z" id="Shape" fill="#04485B" fill-rule="nonzero"></path>
            <path d="M184,135.952316 C179.581722,135.952316 176,139.534038 176,143.952316 L176,167.952316 L160,167.952316 L160,111.952316 C160,107.534038 156.418278,103.952316 152,103.952316 C147.581722,103.952316 144,107.534038 144,111.952316 L144,115.072316 L136,101.712316 L136,23.9523158 C136,19.5340378 132.418278,15.9523158 128,15.9523158 C123.581722,15.9523158 120,19.5340378 120,23.9523158 L120,38.0323158 L103.12,4.3523158 C101.751232,1.68058607 99.0019435,2.84217094e-14 96,2.84217094e-14 C92.9980565,2.84217094e-14 90.2487677,1.68058607 88.88,4.3523158 L72,38.0323158 L72,23.9523158 C72,19.5340378 68.418278,15.9523158 64,15.9523158 C59.581722,15.9523158 56,19.5340378 56,23.9523158 L56,101.712316 L48,115.072316 L48,111.952316 C48,107.534038 44.418278,103.952316 40,103.952316 C35.581722,103.952316 32,107.534038 32,111.952316 L32,167.952316 L16,167.952316 L16,143.952316 C16,139.534038 12.418278,135.952316 8,135.952316 C3.581722,135.952316 0,139.534038 0,143.952316 L0,335.952316 C0,340.370594 3.581722,343.952316 8,343.952316 L24,343.952316 L24,471.952316 C24,476.370594 27.581722,479.952316 32,479.952316 C36.418278,479.952316 40,476.370594 40,471.952316 L40,415.952316 L56,415.952316 L56,471.952316 C56,476.370594 59.581722,479.952316 64,479.952316 C68.418278,479.952316 72,476.370594 72,471.952316 L72,415.952316 L88,415.952316 L88,471.952316 C88,476.370594 91.581722,479.952316 96,479.952316 C100.418278,479.952316 104,476.370594 104,471.952316 L104,415.952316 L120,415.952316 L120,471.952316 C120,476.370594 123.581722,479.952316 128,479.952316 C132.418278,479.952316 136,476.370594 136,471.952316 L136,415.952316 L152,415.952316 L152,471.952316 C152,476.370594 155.581722,479.952316 160,479.952316 C164.418278,479.952316 168,476.370594 168,471.952316 L168,343.952316 L184,343.952316 C188.418278,343.952316 192,340.370594 192,335.952316 L192,255.952316 C192,251.534038 188.418278,247.952316 184,247.952316 C179.581722,247.952316 176,251.534038 176,255.952316 L176,263.952316 L168,263.952316 C163.581722,263.952316 160,267.534038 160,271.952316 C160,276.370594 163.581722,279.952316 168,279.952316 L176,279.952316 L176,295.952316 L16,295.952316 L16,279.952316 L24,279.952316 C28.418278,279.952316 32,276.370594 32,271.952316 C32,267.534038 28.418278,263.952316 24,263.952316 L16,263.952316 L16,215.952316 L24,215.952316 C28.418278,215.952316 32,212.370594 32,207.952316 C32,203.534038 28.418278,199.952316 24,199.952316 L16,199.952316 L16,183.952316 L176,183.952316 L176,199.952316 L168,199.952316 C163.581722,199.952316 160,203.534038 160,207.952316 C160,212.370594 163.581722,215.952316 168,215.952316 L176,215.952316 L176,223.952316 C176,228.370594 179.581722,231.952316 184,231.952316 C188.418278,231.952316 192,228.370594 192,223.952316 L192,143.952316 C192,139.534038 188.418278,135.952316 184,135.952316 Z M72,79.9523158 L88,79.9523158 L88,95.9523158 L72,95.9523158 L72,79.9523158 Z M104,79.9523158 L120,79.9523158 L120,95.9523158 L104,95.9523158 L104,79.9523158 Z M96,25.8723158 L115.04,63.9523158 L76.96,63.9523158 L96,25.8723158 Z M68.56,111.952316 L123.44,111.952316 L137.84,135.952316 L54.16,135.952316 L68.56,111.952316 Z M88,343.952316 L88,367.952316 L72,367.952316 L72,343.952316 L88,343.952316 Z M120,343.952316 L120,367.952316 L104,367.952316 L104,343.952316 L120,343.952316 Z M56,367.952316 L40,367.952316 L40,343.952316 L56,343.952316 L56,367.952316 Z M40,399.952316 L40,383.952316 L56,383.952316 L56,399.952316 L40,399.952316 Z M72,399.952316 L72,383.952316 L88,383.952316 L88,399.952316 L72,399.952316 Z M104,399.952316 L104,383.952316 L120,383.952316 L120,399.952316 L104,399.952316 Z M136,399.952316 L136,383.952316 L152,383.952316 L152,399.952316 L136,399.952316 Z M152,367.952316 L136,367.952316 L136,343.952316 L152,343.952316 L152,367.952316 Z M176,311.952316 L176,327.952316 L16,327.952316 L16,311.952316 L176,311.952316 Z M48,151.952316 L64,151.952316 L64,167.952316 L48,167.952316 L48,151.952316 Z M80,167.952316 L80,151.952316 L112,151.952316 L112,167.952316 L80,167.952316 Z M128,167.952316 L128,151.952316 L144,151.952316 L144,167.952316 L128,167.952316 Z" id="Shape" fill="#04485B" fill-rule="nonzero"></path>
            <path d="M96,247.952316 L112,247.952316 C116.418278,247.952316 120,244.370594 120,239.952316 C120,235.534038 116.418278,231.952316 112,231.952316 L104,231.952316 L104,223.952316 C104,219.534038 100.418278,215.952316 96,215.952316 C91.581722,215.952316 88,219.534038 88,223.952316 L88,239.952316 C88,244.370594 91.581722,247.952316 96,247.952316 Z" id="Path" fill="#04485B" fill-rule="nonzero"></path>
        </g>
    </g>
</svg>