<?xml version="1.0" encoding="UTF-8"?>
<svg width="136px" height="81px" viewBox="0 0 136 81" version="1.1" xmlns="http://www.w3.org/2000/svg" xmlns:xlink="http://www.w3.org/1999/xlink">
    <!-- Generator: Sketch 57.1 (83088) - https://sketch.com -->
    <title>Cloud1</title>
    <desc>Created with Sketch.</desc>
    <g id="Page-1" stroke="none" stroke-width="1" fill="none" fill-rule="evenodd">
        <g id="Cloud1" transform="translate(0.000000, 0.000000)" fill-rule="nonzero">
            <path d="M103.843402,24.1857759 C100.02573,24.2078212 96.2683972,25.140298 92.8834019,26.9057759 C86.5866385,13.3008835 71.6888752,5.89102532 57.0401453,9.07803603 C42.3914153,12.2650467 31.9187308,25.1945567 31.8434019,40.1857759 C31.8040314,40.9586082 31.8040314,41.7329437 31.8434019,42.5057759 C25.9654709,38.9353234 18.4634368,39.520519 13.2102618,43.9592527 C7.95708684,48.3979864 6.12810047,55.6971492 8.66752599,62.0885123 C11.2069515,68.4798754 17.5466255,72.5334545 24.4136599,72.1565693 C31.2806944,71.779684 37.1386797,67.0566577 38.9634019,60.4257759 C45.061618,67.8937444 54.2019294,72.2140846 63.8434019,72.1857759 C71.9109284,72.1939964 79.6729068,69.1006618 85.5234019,63.5457759 C92.6586232,72.1119343 104.753185,74.6367079 114.719576,69.6405589 C124.685967,64.64441 129.899614,53.443036 127.305279,42.6005328 C124.710944,31.7580295 114.991824,24.1296871 103.843402,24.1857759 L103.843402,24.1857759 Z" id="Path" fill="#9ED8EC"></path>
            <path d="M103.843402,16.1857759 C101.338434,16.2021735 98.843073,16.4973238 96.4034019,17.0657759 C87.218077,3.94172671 71.0887917,-2.43659665 55.411665,0.855599962 C39.7345383,4.14779657 27.5335153,16.4754847 24.4034019,32.1857759 C11.1485679,31.964862 0.224315826,42.5309419 0.00340192566,55.7857759 C-0.217511974,69.0406099 10.3485679,79.964862 23.6034019,80.1861947 C30.056742,80.1595126 36.2275912,77.5354599 40.7234019,72.9057759 C53.8996932,81.9715483 71.1837171,82.4107068 84.8034019,74.0257759 C90.3283066,78.0618302 97.0013934,80.22077 103.843402,80.1861947 C108.26168,80.1861947 111.843402,76.6040539 111.843402,72.1857759 C111.843402,67.7674979 108.26168,64.1857759 103.843402,64.1857759 C99.1405137,64.1462499 94.6931906,62.0396232 91.6834019,58.4257759 C90.2712899,56.6614114 88.1788221,55.5765978 85.9231124,55.4394262 C83.6674027,55.3022547 81.4589028,56.125523 79.8434019,57.7057759 C74.9940799,62.1524043 68.5318979,64.4132312 61.9681664,63.9595171 C55.4044348,63.5058029 49.3147846,60.3773378 45.1234019,55.3057759 C43.1921094,52.9499023 40.0904413,51.8953352 37.1234019,52.5857759 C34.2248243,53.2199303 31.915312,55.4062685 31.1234019,58.2657759 C30.2478309,61.5981844 27.3369864,63.9956464 23.8985501,64.2163884 C20.4601138,64.4371303 17.2666017,62.4315579 15.9721043,59.2384642 C14.6776068,56.0453704 15.5729597,52.3821501 18.1944118,50.1461805 C20.8158639,47.9102109 24.5744517,47.603849 27.5234019,49.3857759 C30.093527,51.0527062 33.3898764,51.1056114 36.0121714,49.5220178 C38.6344663,47.9384241 40.1222054,44.9964264 39.8434019,41.9457759 C39.8434019,41.4657759 39.8434019,40.9857759 39.8434019,40.1857759 C39.9380719,28.9666037 47.7929737,19.3100993 58.7578561,16.9330968 C69.7227385,14.5560943 80.871309,20.0929649 85.6034019,30.2657759 C86.5250722,32.2692664 88.2329103,33.8034261 90.3234019,34.5057759 C92.3822841,35.1997667 94.6348817,35.02649 96.5634019,34.0257759 C101.509609,31.4983872 107.412718,31.7171166 112.158322,34.6036185 C116.903927,37.4901203 119.812942,42.6313426 119.843402,48.1857759 C119.843402,52.6040539 123.425124,56.1857759 127.843402,56.1857759 C132.26168,56.1857759 135.843402,52.6040539 135.843402,48.1857759 C135.843402,30.5126639 121.516514,16.1857759 103.843402,16.1857759 L103.843402,16.1857759 Z" id="Path" fill="#04485B"></path>
        </g>
    </g>
</svg>