<?xml version="1.0" encoding="UTF-8"?>
<svg width="167px" height="96px" viewBox="0 0 167 96" version="1.1" xmlns="http://www.w3.org/2000/svg" xmlns:xlink="http://www.w3.org/1999/xlink">
    <!-- Generator: Sketch 57.1 (83088) - https://sketch.com -->
    <title>Cloud3</title>
    <desc>Created with Sketch.</desc>
    <g id="Page-1" stroke="none" stroke-width="1" fill="none" fill-rule="evenodd">
        <g id="Cloud3" fill-rule="nonzero">
            <path d="M135.999999,39.7966601 C133.041059,39.819247 130.111808,40.3888237 127.359999,41.4766601 C124.585114,25.0711516 111.944395,12.0965909 95.6167765,8.89509707 C79.2891577,5.6936032 62.6847559,12.9338265 53.9199994,27.0766601 C49.5868552,24.9472119 44.8280253,23.8258784 39.9999994,23.7966601 C25.5120646,23.7718585 12.8149447,33.4840816 9.0466136,47.4733828 C5.27828252,61.4626841 11.3789952,76.2385238 23.9190977,83.4943283 C36.4592001,90.7501329 52.3097493,88.6754706 62.5599994,78.4366601 C78.1295319,91.6275206 101.181857,90.795557 115.759999,76.5166601 C121.884516,86.3155807 134.122293,90.3589767 144.879122,86.1377003 C155.635952,81.916424 161.85752,70.629072 159.683006,59.2800615 C157.508492,47.9310511 147.55533,39.7428402 135.999999,39.7966601 L135.999999,39.7966601 Z" id="Path" fill="#9ED8EC"></path>
            <path d="M40,95.7970224 C50.5881957,95.7944105 60.7435565,91.5941763 68.2399994,84.1166601 C71.3769768,81.0017741 71.3948854,75.9336374 68.2799994,72.7966601 C65.1651134,69.6596827 60.0969768,69.6417741 56.9599994,72.7566601 C52.4634439,77.2588197 46.3630506,79.7910584 40,79.7966601 C30.074208,79.8888315 21.1158543,73.8610862 17.4621466,64.6317714 C13.808439,55.4024567 16.2133832,44.8762009 23.5126197,38.1493163 C30.8118562,31.4224317 41.4990615,29.8831269 50.3999994,34.2766601 C54.1094963,36.0730307 58.576698,34.7571108 60.7199994,31.2366601 C67.7400768,19.9466196 81.0096108,14.1731043 94.0555254,16.7325207 C107.10144,19.2919372 117.20598,29.6511018 119.439999,42.7566601 C119.830293,45.1382077 121.274819,47.2163015 123.371119,48.4119693 C125.46742,49.6076372 127.991451,49.7930903 130.239999,48.9166601 C138.139915,45.9479556 146.987317,49.6255327 150.455134,57.3194341 C153.922951,65.0133356 150.818681,74.0778042 143.36229,78.0305384 C135.905899,81.9832726 126.66147,79.4650172 122.239999,72.2766601 C120.967048,70.2502267 118.853768,68.9000751 116.479999,68.5966601 C114.079155,68.2870822 111.667249,69.0812465 109.919999,70.7566601 C104.040475,76.4656891 96.194677,79.7013648 88,79.7966601 C83.5817214,79.7966601 80,83.3783821 80,87.7966601 C80,92.2149381 83.5817214,95.7970224 88,95.7970224 C97.5021806,95.8335715 106.801527,93.0493361 114.719999,87.7966601 C120.595049,92.9780665 128.166584,95.8245081 136,95.7970224 C147.432498,95.2964884 157.729725,88.7351451 163.012813,78.5842246 C168.295901,68.4333042 167.762224,56.2349729 161.612813,46.5842243 C155.463402,36.9334757 144.632498,31.2964881 133.199999,31.7966601 C127.3775,15.5620506 113.29269,3.69925107 96.3044984,0.721768646 C79.316307,-2.25571378 62.0366431,4.10990444 51.0399994,17.3966601 C47.4514732,16.3563917 43.7362041,15.8179469 40,15.7966601 C17.9086096,15.7966604 0,33.7052703 0,55.7966601 C0,77.8880498 17.9086096,95.7970224 40,95.7970224 L40,95.7970224 Z" id="Path" fill="#04485B"></path>
        </g>
    </g>
</svg>