<?xml version="1.0" encoding="UTF-8"?>
<svg width="472px" height="447px" viewBox="0 0 472 447" version="1.1" xmlns="http://www.w3.org/2000/svg" xmlns:xlink="http://www.w3.org/1999/xlink">
    <!-- Generator: Sketch 52.5 (67469) - http://www.bohemiancoding.com/sketch -->
    <title>light-bolt-2</title>
    <desc>Created with Sketch.</desc>
    <g id="Page-1" stroke="none" stroke-width="1" fill="none" fill-rule="evenodd">
        <g id="light-bolt-2" fill="#FFFFFF">
            <path d="M212.629899,174.761086 C210.73867,170.354829 207.170213,167.624818 203.298812,167.624818 L129.329567,167.624818 L139.063242,15.1318442 C139.470512,8.74814128 136.497912,2.82191376 131.853435,0.755416919 C127.229688,-1.32504863 122.083647,1.00161553 119.418673,6.38306315 L1.71978031,243.848606 C-0.412198855,248.145732 -0.574036671,253.621469 1.30181075,258.115903 C3.17765816,262.610337 6.78222771,265.405826 10.7004416,265.405826 L84.7432488,265.405826 L74.9313296,431.959186 C74.5501414,438.39789 77.6009849,444.33896 82.3083253,446.324263 C83.3950462,446.780866 84.5024984,447 85.5999193,447 C89.2466201,447 92.7468645,444.551983 94.7323871,440.31597 L212.43128,188.880838 C214.448234,184.570616 214.526477,179.167343 212.629899,174.761086 Z M99.9272472,377 L107.175116,253.272698 C107.403898,249.389567 106.385685,245.559725 104.374531,242.699574 C102.358722,239.847285 99.5268786,238.221524 96.565348,238.221524 L31,238.221524 L114.355814,69 L107.242953,181.153912 C106.998874,185.05102 108.001791,188.898334 110.0176,191.778578 C112.03341,194.652706 114.869908,196.28895 117.8474,196.28895 L184,196.28895 L99.9272472,377 Z" id="Shape" fill-rule="nonzero"></path>
            <text id="ports" font-family="DINAlternate-Bold, DIN Alternate" font-size="126" font-weight="bold" letter-spacing="3.02399755">
                <tspan x="191.481022" y="337">ports</tspan>
            </text>
        </g>
    </g>
</svg>